<svg xmlns="http://www.w3.org/2000/svg" width="442" height="193.393" viewBox="0 0 116.946 51.169">
  <path d="M44.45 25.11v-.662h72.496v1.323H44.45zm52.652 25.8c0-.144.421-.437.936-.652.621-.26 1.056-.683 1.294-1.26.302-.735 2.472-10.118 2.617-11.32.032-.261-.263-.44-.878-.532l-.926-.138 1.055-.525c.856-.426 1.147-.777 1.539-1.849.868-2.379 2.53-3.567 4.997-3.57 1.115-.002 1.39.284 1.16 1.204-.2.798-.843.833-1.454.077-.74-.912-1.787-.487-2.44.991-.292.658-.596 1.606-.678 2.107l-.147.91h1.349c1.07 0 1.319.08 1.202.385-.096.25-.62.411-1.499.463l-1.35.079-1.131 5.257c-1.238 5.753-1.854 7.368-3.102 8.13-.867.528-2.544.688-2.544.243zm13.23-13.571c0-.516.713-1.46 2.692-3.566 1.488-1.58 1.805-2.074 1.805-2.803 0-1.684-1.592-2.308-2.802-1.098-.9.9-1.49.87-1.383-.066.073-.632.26-.773 1.407-1.063 2.58-.653 4.366.147 4.366 1.955 0 .84-.26 1.224-2.117 3.127-1.164 1.192-2.117 2.25-2.117 2.349 0 .38 3.106.185 3.44-.217.77-.928 1.272-.296.891 1.125-.153.573-.271.595-3.17.595-2.269 0-3.013-.084-3.013-.338zM67.124 46.26c-.457-.32-.589-.673-.589-1.577 0-1.158.775-4.903 1.3-6.285l.275-.722h-3.307l-.72 3.373c-1.186 5.548-1.103 5.358-2.322 5.358-1.19 0-1.25-.153-.533-1.374.508-.865 1.663-4.54 2.011-6.398.168-.893.135-.96-.475-.96-.36 0-.977.254-1.371.564-.523.411-.795.484-1.008.27-.214-.213-.155-.443.216-.854 1.076-1.19 1.672-1.302 6.866-1.302h4.926l-.084.595c-.074.515-.265.606-1.419.674l-1.333.078-.753 3.526c-.415 1.94-.67 3.66-.57 3.825.264.426.96.368 1.505-.125.257-.233.602-.34.766-.238.373.23-.356 1.087-1.376 1.614-.915.473-1.28.465-2.005-.042zm7.878-6.829c0-.447.714-1.388 2.736-3.607 1.906-2.091 2.401-3.115 2.008-4.15-.341-.897-.684-1.133-1.659-1.138-.507-.003-.978.254-1.448.79-.89 1.014-1.372 1.018-1.372.009 0-.998.572-1.312 2.713-1.489 1.908-.157 2.793.189 3.325 1.298.604 1.26.158 2.204-2.233 4.727-1.22 1.287-2.218 2.458-2.218 2.602 0 .143.715.26 1.588.26 1.234 0 1.705-.117 2.116-.528.786-.786 1.059-.65 1.059.529v1.058H78.31c-2.618 0-3.307-.075-3.307-.361zm-20.5-7.576l-.859.018c-.817.018-1.012.251-3.903 4.668-1.673 2.557-3.08 4.811-3.128 5.009-.068.287.532.36 2.977.36h3.062v1.568c0 1.506-.401 2.4-1.077 2.4-.135 0-.246.12-.246.265.002.156.944.26 2.315.255l2.315-.008-.727-.542c-.662-.494-.728-.697-.728-2.241V41.91h2.646v-1.058c0-1.229-.34-1.34-1.214-.397-.337.364-.797.662-1.022.662-.354 0-.41-.628-.41-4.63zm-1.983 2.423l.074 3.072c.042 1.69.016 3.229-.057 3.42-.093.242-.729.345-2.126.345-1.096 0-1.993-.075-1.993-.167 0-.092.923-1.63 2.051-3.419zm32.634 11.893c0-.13.184-.307.409-.393.634-.244 1.028-1.482 2.228-7.004 1.096-5.045 1.18-6.39.4-6.39-.215 0-.391-.119-.391-.264 0-.155.882-.265 2.117-.265 1.164 0 2.116.07 2.116.156s-.24.354-.535.595c-.413.339-.837 1.777-1.848 6.26-.721 3.202-1.314 6.046-1.316 6.32-.004.454.161.487 1.86.365 2.115-.151 2.777-.584 3.566-2.333.301-.67.646-1.044.96-1.044.557 0 .587.15.237 1.217a36.818 36.818 0 00-.54 1.892l-.288 1.124h-4.487c-2.468 0-4.488-.106-4.488-.236zM2.984 31.324C.906 30.856 0 29.509 0 26.893c0-3.28 1.427-6.803 3.518-8.683 1.812-1.63 4.089-2.12 6.602-1.421 1.084.3 1.165.545.714 2.169-.346 1.244-1.165 1.38-1.395.23-.22-1.095-.863-1.62-1.983-1.618-2.522.004-4.625 3.203-5.345 8.133-.515 3.516.37 5.06 2.723 4.752.907-.119 1.322-.376 2.192-1.357 1.413-1.595 1.822-1.591 1.582.014-.279 1.856-.324 1.904-1.95 2.076-.824.087-1.796.197-2.16.243-.364.047-1.046-.002-1.515-.107zm17.124-4.098v-.662h13.229v1.323H20.108zm0-4.498v-.662h13.229v1.323H20.108zm56.893-8.467c0-.285.292-.397 1.04-.397 1.825 0 1.87-.15 1.87-6.104 0-5.958.06-5.823-2-4.616-.988.58-1.14.606-1.286.227-.09-.237-.133-.454-.093-.484.956-.704 5.123-2.98 5.28-2.884.119.074.217 3.097.217 6.718 0 4.98.08 6.633.33 6.788.182.112.798.268 1.368.346.57.078 1.086.29 1.146.472.085.255-.806.331-3.88.331-3.372 0-3.992-.062-3.992-.397z"/>
</svg>
