<svg xmlns="http://www.w3.org/2000/svg" width="366.388" height="168.831" viewBox="0 0 96.94 44.67">
  <path d="M56.84 42.942c-.386-.27-.535-.67-.535-1.44 0-.928.758-4.427 1.22-5.63.134-.35-.078-.418-1.294-.418h-1.454l-.182.993c-.1.545-.481 2.272-.846 3.836l-.663 2.844h-.904c-.497 0-.904-.078-.904-.173 0-.095.281-.78.625-1.521.343-.742.825-2.182 1.07-3.2.245-1.02.507-2.06.584-2.316.197-.66-.956-.615-1.828.071-.84.66-1.254.212-.543-.587.942-1.057 1.974-1.27 6.17-1.27h3.977v.662c0 .606-.099.661-1.17.661h-1.168l-.563 2.58c-.31 1.419-.612 2.812-.672 3.095-.06.284.018.67.174.857.23.277.428.257 1.04-.104 1.04-.615 1.343-.17.398.585-.982.785-1.856.95-2.532.475zm-15.087-.293c0-.568 1.724-3.121 3.181-4.712 1.764-1.924 2.421-3.127 2.441-4.466.024-1.556-.636-2.303-2.033-2.303-1.028 0-1.875.562-2.15 1.426-.273.862-1.29.511-1.387-.479-.072-.742.026-.867.966-1.244 1.514-.606 3.475-.805 4.406-.448 1.48.567 1.985 1.276 1.985 2.789 0 1.561-.366 2.16-3.264 5.347-.957 1.053-1.869 2.155-2.026 2.448-.275.515-.209.533 1.97.533 1.97 0 2.299-.067 2.587-.53.607-.97 1.034-.642.946.728l-.081 1.257-3.77.073c-3.527.07-3.77.042-3.77-.419zm26.591-.461a456.631 456.631 0 01-1.897-4.14c-.716-1.595-.793-1.64-2.006-1.14-.314.13-.463.069-.463-.19 0-.49 2.57-1.712 2.9-1.377.132.135.855 1.615 1.606 3.288.75 1.674 1.452 3.137 1.56 3.251.109.114 1.188-3.242 2.398-7.459 1.21-4.216 2.272-7.762 2.359-7.88.087-.118 10.613-.179 22.073-.135v1.11h-21.42l-2.497 8.53c-1.96 6.697-2.596 8.549-2.96 8.619-.355.068-.736-.502-1.653-2.477zm21.331.928c-.491-.11-1.201-.509-1.578-.885-1.475-1.475-.91-6.35 1.08-9.319 1.183-1.765 2.752-2.61 4.831-2.603.874.003 1.912.092 2.308.198.646.171.704.28.558 1.048-.36 1.905-1.076 2.299-1.463.805-.469-1.806-2.834-1.646-4.312.292-1.602 2.1-2.723 7.124-1.925 8.623.194.364.687.822 1.097 1.019 1.015.487 2.486-.071 3.208-1.217.291-.462.738-.844.992-.85.547-.012.545-.037.17 1.448-.284 1.13-.328 1.168-1.52 1.318l-1.89.24c-.364.046-1.064-.007-1.556-.117zm-12.997-.145c0-.086.235-.353.523-.595.389-.327.794-1.671 1.587-5.266 1.186-5.373 1.237-5.84.668-6.058-.922-.354-.269-.625 1.506-.625h1.902l-.559.52c-.307.287-.623.733-.702.993-.165.543-2.279 10.058-2.279 10.26 0 .073.688.134 1.529.134 1.802 0 2.492-.398 3.243-1.87.583-1.143 1.501-1.482 1.206-.446-.093.328-.306 1.161-.473 1.853l-.304 1.256h-3.923c-2.158 0-3.924-.07-3.924-.156zM.068 31.464c-.22-.357.109-.69.805-.816.29-.052.685-.423.877-.824.327-.682 2.42-9.454 2.429-10.178.002-.182-.294-.331-.658-.331-.823 0-.876-.462-.066-.577.437-.062.831-.558 1.48-1.859.73-1.467 1.076-1.867 2.001-2.315.615-.297 1.616-.54 2.225-.54 1.049 0 1.107.04 1.107.777 0 1.03-.5 1.301-1.077.587-1.084-1.338-2.326-.338-2.99 2.405-.173.714-.153.728 1.041.728 1.528 0 1.496.621-.037.745-.571.046-1.13.173-1.241.283-.112.109-.624 2.152-1.139 4.54-1.033 4.794-1.606 6.365-2.536 6.946-.884.553-2.01.77-2.221.429zm17.873-7.519v-.661H29.318v1.322H17.94zm22.49-1.852v-.662h56.443v1.323H40.43zm-22.49-2.117v-.661H29.318v1.323H17.94zm47.464-7.342c.06-.182.516-.37 1.013-.418.498-.049 1.054-.212 1.236-.364.425-.351.48-9.348.059-9.608-.15-.093-.693.078-1.206.381-1.07.632-1.435.688-1.422.22C65.095 2.534 69.018 0 69.49 0c.119 0 .182 2.41.141 5.358-.086 6.19.018 6.63 1.603 6.763.643.053.986.214.986.463 0 .312-.626.38-3.462.38-2.65 0-3.436-.077-3.353-.33z"/>
</svg>
