<svg xmlns="http://www.w3.org/2000/svg" width="442" height="193.637" viewBox="0 0 116.946 51.233">
  <path d="M97.102 50.874c0-.2.363-.436.807-.525.634-.127.911-.403 1.294-1.29.553-1.28 2.918-11.499 2.71-11.708-.075-.074-.474-.136-.886-.136-1.009 0-.95-.36.11-.673.525-.154.963-.508 1.124-.907.929-2.296 1.64-3.3 2.758-3.89 1.229-.65 3.548-.851 3.866-.336.283.458-.119 1.573-.567 1.573-.228 0-.63-.266-.893-.59-1.035-1.278-2.759.375-3.108 2.981l-.14 1.049h1.225c.913 0 1.225.1 1.225.396 0 .3-.322.397-1.307.397-.72 0-1.362.09-1.428.199-.067.109-.622 2.519-1.234 5.355-1.196 5.541-1.874 7.277-3.124 8.006-.962.561-2.432.621-2.432.1zm13.15-13.296c-.274-.275.342-1.194 1.926-2.876 2.139-2.27 2.651-3.016 2.651-3.857 0-.798-.814-1.567-1.658-1.567-.266 0-.78.298-1.144.661-.867.868-1.696.881-1.696.029 0-.7.309-.874 2.184-1.23 2.396-.457 3.902.33 3.902 2.04 0 .836-.274 1.229-2.297 3.297l-2.297 2.347h1.735c1.22 0 1.833-.118 2.065-.397.446-.538 1.163-.522.954.021-.088.23-.16.707-.16 1.059 0 .639-.004.64-2.999.64-1.65 0-3.074-.076-3.166-.167zm-43.317 8.628c-.51-.51-.568-.773-.43-1.95.137-1.165.908-4.536 1.383-6.049.128-.405-.051-.463-1.442-.463-1.288 0-1.611.088-1.713.463-.069.255-.511 2.22-.983 4.366l-.858 3.903H61.74c-.633 0-1.151-.045-1.151-.1 0-.054.296-.629.659-1.277.478-.857 2.23-6.532 2.25-7.288.007-.305-1.535.05-2.161.495-1.298.924-1.477.21-.23-.917l1.07-.967h5.188c4.62 0 5.169.045 5.026.418-.088.23-.16.528-.16.661 0 .134-.594.243-1.319.243-1.15 0-1.335.076-1.454.596-1.427 6.208-1.513 7.077-.7 7.077.273 0 .645-.178.826-.397.372-.447.95-.52 1.18-.15.217.351-1.464 1.57-2.43 1.763-.626.125-.946.027-1.4-.427zm7.942-6.58c0-.334 2.181-3.233 2.909-3.866 1.15-1 2.118-2.571 2.118-3.438 0-1.777-2.06-2.362-3.267-.927-.88 1.046-1.495 1.043-1.495-.007 0-.915.608-1.255 2.69-1.503 2.385-.284 3.66.51 3.66 2.28 0 1.151-.955 2.526-3.41 4.908-.744.722-1.353 1.407-1.353 1.521 0 .115.775.209 1.723.209 1.395 0 1.808-.101 2.175-.53.878-1.025 1.368-.52.962.993-.154.576-.261.595-3.435.595-1.803 0-3.277-.106-3.277-.236zm12.26 6.586c-1.46-.745-2.011-1.917-1.982-4.208.062-4.807 2.75-9.272 6.06-10.063 1.134-.271 4.626-.044 4.995.325.06.06-.022.722-.183 1.471-.223 1.04-.407 1.362-.778 1.362-.325 0-.544-.263-.66-.794-.342-1.554-2.1-2.05-3.722-1.048-1.831 1.132-3.385 4.55-3.723 8.196-.092.987-.09 2.1.004 2.475.474 1.89 2.862 2.39 4.508.944.507-.445.996-1.04 1.085-1.323.163-.512 1.186-.737 1.186-.261 0 .138-.126.84-.28 1.557-.316 1.471-.385 1.505-3.667 1.783-1.446.122-1.929.052-2.844-.416zM52.422 31.924c-.672 0-1.05.458-3.83 4.629-1.696 2.546-3.085 4.808-3.085 5.027 0 .33.496.398 2.91.398h2.911v1.717c0 1.431-.088 1.773-.53 2.048-.29.182-.528.422-.528.532 0 .11.953.2 2.117.2 1.995 0 2.733-.297 1.616-.651-.595-.19-.814-.884-.819-2.59l-.004-1.256h2.646v-1.059c0-1.234-.25-1.313-1.186-.377-1.205 1.205-1.321.867-1.4-4.076l-.072-4.542zm-.957 2.432c.044.045.013 1.6-.067 3.455l-.147 3.373h-1.946c-1.18 0-1.946-.109-1.946-.277 0-.317 3.985-6.675 4.106-6.551zM0 31.122c0-.15.168-.337.373-.416.54-.208.823-1.072 1.889-5.794 1.419-6.285 1.471-6.718.879-7.31-.272-.272-.495-.554-.495-.627 0-.073.952-.132 2.117-.132 1.234 0 2.116.11 2.116.264 0 .146-.174.265-.387.265-.618 0-.818.614-2.112 6.487-.673 3.053-1.287 5.76-1.364 6.014-.126.413.077.463 1.861.463 2.252 0 2.62-.216 3.584-2.105.342-.671.73-1.07 1.038-1.07.474 0 .471.078-.07 2.117l-.561 2.117H4.434c-2.87 0-4.434-.097-4.434-.273zm19.05-3.828v-.662h13.229v1.323H19.05zm25.4-2.117v-.662h72.496v1.323H44.45zm-25.4-2.386v-.666l6.548.07 6.549.072.084.595.085.595H19.05zm58.01-8.396c.061-.182.577-.394 1.147-.472.57-.078 1.186-.234 1.368-.347.247-.153.33-1.572.33-5.613 0-6.066.057-5.92-1.884-4.829-.79.444-1.104.507-1.342.27-.17-.171-.258-.353-.195-.404.327-.267 4.722-2.834 5.098-2.979.403-.154.44.389.44 6.456 0 7.45.001 7.455 1.871 7.455.748 0 1.04.112 1.04.397 0 .335-.62.397-3.991.397-3.075 0-3.966-.076-3.881-.33z"/>
</svg>
